<svg id="Layer_1" data-name="Layer 1" xmlns="http://www.w3.org/2000/svg" viewBox="0 0 286.48 71.64"><defs><style>.cls-1{fill:#ec1c24;}.cls-2{fill:#fff;}.cls-3{fill:#017fff;}</style></defs><polygon class="cls-1" points="82.36 74.38 10.72 74.38 60.72 -2.74 132.36 -2.74 82.36 74.38"/><polygon class="cls-2" points="154.01 74.38 82.36 74.38 132.36 -2.74 204.01 -2.74 154.01 74.38"/><polygon class="cls-2" points="154.01 74.38 82.36 74.38 132.36 -2.74 204.01 -2.74 154.01 74.38"/><polygon class="cls-3" points="225.65 74.38 154.01 74.38 204.01 -2.74 275.65 -2.74 225.65 74.38"/><polygon class="cls-2" points="275.55 -2.74 225.55 74.38 296.37 74.38 296.37 -2.74 275.55 -2.74"/><polygon class="cls-2" points="60.82 -2.74 -10 -2.74 -10 74.38 10.82 74.38 60.82 -2.74"/></svg>