<svg xmlns="http://www.w3.org/2000/svg" viewBox="0 0 143.48 159.17"><defs><style>.cls-1{fill:#ec1c24;}.cls-2{fill:#1c2e5a;}.cls-3{fill:#fff;}</style></defs><g id="Layer_2" data-name="Layer 2"><g id="Layer_1-2" data-name="Layer 1"><path class="cls-1" d="M142.69,158.5c-2.22,2.47-4.52-2.68-7.85-2.68S131.52,159,128.2,159s-3.33-3.21-6.65-3.21S118.23,159,114.9,159s-3.32-3.21-6.64-3.21-3.33,3.21-6.65,3.21-3.32-3.21-6.65-3.21S91.64,159,88.32,159s-3.32-3.21-6.64-3.21S78.35,159,75,159s-3.32-3.21-6.65-3.21S65.06,159,61.74,159s-3.33-3.21-6.65-3.21S51.76,159,48.44,159s-3.33-3.21-6.65-3.21S38.46,159,35.14,159s-3.33-3.21-6.65-3.21S25.16,159,21.84,159s-3.33-3.21-6.66-3.21S11.85,159,8.52,159s-3.24-.2-5.47-2.68C.57,153.6.25,153.72.25,150s3.21-3.7,3.21-7.4S.25,138.9.25,135.19s3.21-3.7,3.21-7.41-3.21-3.7-3.21-7.41,3.21-3.7,3.21-7.41-3.21-3.7-3.21-7.41,3.21-3.71,3.21-7.41S.25,94.43.25,90.73,3.46,87,3.46,83.32.25,79.61.25,75.91,3.46,72.2,3.46,68.5.25,64.79.25,61.09s3.21-3.71,3.21-7.42S.25,50,.25,46.26s3.21-3.71,3.21-7.42S.25,35.14.25,31.43,3.46,27.72,3.46,24,.25,20.31.25,16.59s3.21-3.71,3.21-7.42S-1.82,3.44.66.67C2.88-1.8,5.18,3.35,8.5,3.35S11.83.14,15.15.14s3.32,3.21,6.65,3.21S25.12.14,28.44.14s3.33,3.21,6.65,3.21S38.41.14,41.74.14s3.32,3.21,6.65,3.21S51.71.14,55,.14s3.33,3.21,6.65,3.21S65,.14,68.31.14,71.64,3.35,75,3.35,78.29.14,81.61.14s3.32,3.21,6.65,3.21S91.58.14,94.91.14s3.32,3.21,6.65,3.21S104.89.14,108.21.14s3.33,3.21,6.65,3.21S118.19.14,121.51.14s3.33,3.21,6.66,3.21S131.5.14,134.83.14s3.24.2,5.47,2.68c2.47,2.75,2.79,2.63,2.79,6.34s-3.21,3.7-3.21,7.4,3.21,3.71,3.21,7.42-3.21,3.7-3.21,7.41,3.21,3.7,3.21,7.41-3.21,3.7-3.21,7.41,3.21,3.7,3.21,7.41-3.21,3.71-3.21,7.41,3.21,3.71,3.21,7.41-3.21,3.71-3.21,7.41,3.21,3.71,3.21,7.41-3.21,3.71-3.21,7.41,3.21,3.71,3.21,7.41-3.21,3.71-3.21,7.42,3.21,3.7,3.21,7.41-3.21,3.71-3.21,7.42,3.21,3.7,3.21,7.41-3.21,3.71-3.21,7.41,3.21,3.71,3.21,7.43-4.14,4.28-3.15,7.85C141.17,154.82,145.16,155.73,142.69,158.5Z"/><path class="cls-2" d="M102.15,21.76A2.9,2.9,0,0,1,99,18.51V14.34h1.6v4.13c0,1.19.6,1.8,1.58,1.8s1.57-.59,1.57-1.75V14.34h1.61v4.12A2.94,2.94,0,0,1,102.15,21.76Z"/><path class="cls-2" d="M110.62,21.75a4.64,4.64,0,0,1-3.09-1.17l.94-1.14a3.39,3.39,0,0,0,2.19.89c.65,0,1-.26,1-.69v0c0-.41-.25-.62-1.47-.93-1.47-.38-2.42-.78-2.42-2.23v0a2.28,2.28,0,0,1,2.55-2.2,4.26,4.26,0,0,1,2.72.93l-.84,1.21a3.42,3.42,0,0,0-1.9-.72c-.61,0-.94.28-.94.64v0c0,.48.32.64,1.58,1,1.48.39,2.31.92,2.31,2.19v0C113.3,20.93,112.2,21.75,110.62,21.75Z"/><path class="cls-2" d="M121,21.64,120.35,20h-3.08l-.67,1.64H115l3.13-7.35h1.48l3.13,7.35Zm-2.21-5.42-1,2.36h1.94Z"/><path class="cls-2" d="M23.82,139.17l-1.13-.91a3,3,0,0,1,2.72-1.51A2.24,2.24,0,0,1,27.93,139c0,1.22-.63,1.84-1.92,2.84l-1.19.92H28v1.39H22.6v-1.28l2.43-2c.91-.75,1.26-1.15,1.26-1.75a.9.9,0,0,0-1-.95C24.75,138.19,24.36,138.5,23.82,139.17Z"/><path class="cls-2" d="M33.42,144.28c-2,0-3.23-1.64-3.23-3.76s1.3-3.79,3.25-3.79,3.24,1.64,3.24,3.77S35.37,144.28,33.42,144.28Zm0-6.1c-1,0-1.58,1-1.58,2.32s.63,2.33,1.6,2.33,1.59-1,1.59-2.31S34.39,138.18,33.42,138.18Z"/><path class="cls-2" d="M39.91,139.17l-1.13-.91a3,3,0,0,1,2.72-1.51A2.24,2.24,0,0,1,44,139c0,1.22-.63,1.84-1.92,2.84l-1.19.92h3.18v1.39h-5.4v-1.28l2.43-2c.91-.75,1.26-1.15,1.26-1.75a.9.9,0,0,0-1-.95C40.84,138.19,40.45,138.5,39.91,139.17Z"/><path class="cls-2" d="M49.51,144.28c-1.95,0-3.23-1.64-3.23-3.76s1.3-3.79,3.25-3.79,3.24,1.64,3.24,3.77S51.47,144.28,49.51,144.28Zm0-6.1c-1,0-1.58,1-1.58,2.32s.63,2.33,1.6,2.33,1.59-1,1.59-2.31S50.48,138.18,49.51,138.18Z"/><path class="cls-3" d="M31.61,52H27.86V58.7H22.91V36.22h9.18c5.37,0,8.61,3.18,8.61,7.77v.07C40.7,49.26,36.65,52,31.61,52Zm4.08-7.87c0-2.22-1.54-3.4-4-3.4H27.86v6.87h3.91c2.47,0,3.92-1.48,3.92-3.41Z"/><path class="cls-3" d="M59.76,59.08A11.52,11.52,0,0,1,47.85,47.53v-.07a11.62,11.62,0,0,1,12-11.62A11.52,11.52,0,0,1,71.74,47.4v.06A11.62,11.62,0,0,1,59.76,59.08Zm6.81-11.62a6.82,6.82,0,0,0-6.81-7.06,6.72,6.72,0,0,0-6.74,7v.06a6.83,6.83,0,0,0,6.81,7.06,6.71,6.71,0,0,0,6.74-7Z"/><path class="cls-3" d="M88.46,59a14.29,14.29,0,0,1-9.53-3.6l2.92-3.5a10.3,10.3,0,0,0,6.71,2.73c2,0,3.24-.8,3.24-2.12v-.06c0-1.25-.77-1.89-4.52-2.86-4.53-1.15-7.45-2.41-7.45-6.87v-.06c0-4.08,3.27-6.78,7.86-6.78A13,13,0,0,1,96,38.76l-2.57,3.72a10.54,10.54,0,0,0-5.84-2.21c-1.9,0-2.89.87-2.89,2v.06c0,1.48,1,2,4.85,3,4.56,1.18,7.13,2.82,7.13,6.74v.06C96.72,56.51,93.31,59,88.46,59Z"/><path class="cls-3" d="M115.21,40.78V58.7h-4.95V40.78h-6.84V36.22h18.63v4.56Z"/><path class="cls-3" d="M35.83,81.31v9H30.88V81.41L22.25,67.79H28l5.36,9,5.46-9h5.61Z"/><path class="cls-3" d="M57.81,90.65A11.52,11.52,0,0,1,45.9,79.1V79a11.62,11.62,0,0,1,12-11.62A11.52,11.52,0,0,1,69.79,79V79A11.62,11.62,0,0,1,57.81,90.65ZM64.62,79A6.82,6.82,0,0,0,57.81,72a6.72,6.72,0,0,0-6.74,7V79a6.83,6.83,0,0,0,6.81,7.06,6.71,6.71,0,0,0,6.74-7Z"/><path class="cls-3" d="M84.84,90.62c-6,0-9.73-3.37-9.73-10V67.79h5V80.51c0,3.66,1.83,5.55,4.84,5.55s4.85-1.83,4.85-5.39V67.79h5V80.48C94.7,87.28,90.88,90.62,84.84,90.62Z"/><path class="cls-3" d="M114.66,90.27l-4.81-7.19H106v7.19H101V67.79h10.27c5.3,0,8.48,2.8,8.48,7.42v.07a7,7,0,0,1-4.82,7l5.49,8Zm.1-14.8c0-2.12-1.48-3.21-3.89-3.21H106v6.45h5c2.41,0,3.79-1.28,3.79-3.18Z"/><path class="cls-3" d="M34.54,122.74H30.17L21.09,100.1h5.46l5.87,15.83L38.3,100.1h5.33Z"/><path class="cls-3" d="M59.77,123a11.51,11.51,0,0,1-11.91-11.55v-.07a11.62,11.62,0,0,1,12-11.62,11.52,11.52,0,0,1,11.91,11.56v.06A11.62,11.62,0,0,1,59.77,123Zm6.81-11.62a6.83,6.83,0,0,0-6.81-7.06,6.72,6.72,0,0,0-6.74,7v.06a6.83,6.83,0,0,0,6.81,7.06,6.71,6.71,0,0,0,6.74-7Z"/><path class="cls-3" d="M88.56,104.66v17.92H83.62V104.66H76.78V100.1H95.4v4.56Z"/><path class="cls-3" d="M102.4,122.58V100.1h16.95v4.4h-12v4.56H117.9v4.4H107.31v4.72h12.2v4.4Z"/><polygon class="cls-2" points="26.89 20.01 29.85 22.07 28.8 18.61 31.68 16.43 28.07 16.36 26.89 12.94 25.7 16.36 22.09 16.43 24.97 18.61 23.92 22.07 26.89 20.01"/><polygon class="cls-2" points="38.68 20.01 41.64 22.07 40.6 18.61 43.48 16.43 39.86 16.36 38.68 12.94 37.49 16.36 33.88 16.43 36.76 18.61 35.71 22.07 38.68 20.01"/><polygon class="cls-2" points="50.47 20.01 53.43 22.07 52.39 18.61 55.27 16.43 51.65 16.36 50.47 12.94 49.28 16.36 45.67 16.43 48.55 18.61 47.5 22.07 50.47 20.01"/><polygon class="cls-2" points="93.24 142.19 96.06 144.16 95.07 140.86 97.81 138.78 94.37 138.71 93.24 135.46 92.11 138.71 88.67 138.78 91.41 140.86 90.41 144.16 93.24 142.19"/><polygon class="cls-2" points="104.47 142.19 107.3 144.16 106.3 140.86 109.05 138.78 105.6 138.71 104.47 135.46 103.34 138.71 99.9 138.78 102.64 140.86 101.65 144.16 104.47 142.19"/><polygon class="cls-2" points="115.71 142.19 118.53 144.16 117.54 140.86 120.28 138.78 116.84 138.71 115.71 135.46 114.58 138.71 111.14 138.78 113.88 140.86 112.88 144.16 115.71 142.19"/><line class="cls-2" x1="59.27" y1="15.73" x2="92.03" y2="15.73"/><path class="cls-2" d="M92,16.53H59.27a.81.81,0,0,1,0-1.61H92a.81.81,0,0,1,0,1.61Z"/><line class="cls-2" x1="59.27" y1="20.54" x2="92.03" y2="20.54"/><path class="cls-2" d="M92,21.34H59.27a.8.8,0,0,1,0-1.6H92a.8.8,0,0,1,0,1.6Z"/><line class="cls-2" x1="58.84" y1="138.31" x2="82.61" y2="138.31"/><path class="cls-2" d="M82.61,139.11H58.84a.8.8,0,1,1,0-1.6H82.61a.8.8,0,1,1,0,1.6Z"/><line class="cls-2" x1="58.84" y1="143.13" x2="82.61" y2="143.13"/><path class="cls-2" d="M82.61,143.93H58.84a.81.81,0,0,1,0-1.61H82.61a.81.81,0,0,1,0,1.61Z"/></g></g></svg>