<svg id="Layer_1" data-name="Layer 1" xmlns="http://www.w3.org/2000/svg" viewBox="0 0 200 200"><defs><style>.cls-1{fill:#ec1c24;}.cls-2{fill:#1c2e5a;}.cls-3{fill:#fff;}</style></defs><path class="cls-1" d="M169.85,178.84c-2.21,2.47-4.52-2.68-7.84-2.68s-3.32,3.21-6.64,3.21-3.33-3.21-6.65-3.21-3.32,3.21-6.65,3.21-3.32-3.21-6.65-3.21-3.32,3.21-6.64,3.21-3.33-3.21-6.65-3.21-3.32,3.21-6.64,3.21-3.32-3.21-6.65-3.21-3.32,3.21-6.64,3.21-3.32-3.21-6.65-3.21-3.32,3.21-6.64,3.21-3.33-3.21-6.65-3.21-3.33,3.21-6.65,3.21-3.33-3.21-6.66-3.21-3.32,3.21-6.65,3.21-3.32-3.21-6.65-3.21-3.32,3.21-6.65,3.21-3.32-3.21-6.65-3.21-3.33,3.21-6.66,3.21-3.24-.2-5.47-2.68c-2.48-2.75-2.8-2.63-2.8-6.33s3.21-3.71,3.21-7.41-3.21-3.71-3.21-7.41,3.21-3.71,3.21-7.41-3.21-3.71-3.21-7.42,3.21-3.7,3.21-7.41-3.21-3.7-3.21-7.41,3.21-3.71,3.21-7.41-3.21-3.71-3.21-7.41,3.21-3.71,3.21-7.41-3.21-3.7-3.21-7.41,3.21-3.71,3.21-7.41-3.21-3.71-3.21-7.41,3.21-3.71,3.21-7.42-3.21-3.7-3.21-7.41,3.21-3.71,3.21-7.42-3.21-3.7-3.21-7.41,3.21-3.71,3.21-7.41-3.21-3.71-3.21-7.42,3.21-3.72,3.21-7.43-5.28-5.73-2.8-8.5c2.22-2.47,4.52,2.68,7.84,2.68s3.33-3.21,6.65-3.21,3.32,3.21,6.64,3.21,3.33-3.21,6.65-3.21,3.33,3.21,6.65,3.21,3.32-3.21,6.65-3.21,3.32,3.21,6.64,3.21,3.32-3.21,6.64-3.21,3.33,3.21,6.65,3.21,3.32-3.21,6.64-3.21,3.33,3.21,6.65,3.21,3.32-3.21,6.65-3.21,3.32,3.21,6.65,3.21,3.32-3.21,6.65-3.21,3.32,3.21,6.65,3.21,3.32-3.21,6.65-3.21,3.32,3.21,6.65,3.21,3.32-3.21,6.65-3.21,3.33,3.21,6.66,3.21,3.33-3.21,6.66-3.21,3.24.2,5.46,2.68c2.48,2.75,2.8,2.63,2.8,6.34s-3.21,3.7-3.21,7.41,3.21,3.7,3.21,7.41-3.21,3.7-3.21,7.41,3.21,3.7,3.21,7.41-3.21,3.7-3.21,7.41,3.21,3.71,3.21,7.41-3.21,3.71-3.21,7.42,3.21,3.7,3.21,7.41-3.21,3.7-3.21,7.4,3.21,3.71,3.21,7.41-3.21,3.71-3.21,7.41,3.21,3.71,3.21,7.41-3.21,3.71-3.21,7.42,3.21,3.71,3.21,7.41-3.21,3.71-3.21,7.42,3.21,3.71,3.21,7.41-3.21,3.71-3.21,7.42,3.21,3.71,3.21,7.42-4.15,4.28-3.15,7.85C168.34,175.17,172.33,176.07,169.85,178.84Z"/><path class="cls-2" d="M129.31,42.1a2.9,2.9,0,0,1-3.16-3.25V34.68h1.61v4.13c0,1.19.59,1.81,1.58,1.81s1.57-.6,1.57-1.76V34.68h1.61V38.8A2.94,2.94,0,0,1,129.31,42.1Z"/><path class="cls-2" d="M137.79,42.09a4.68,4.68,0,0,1-3.1-1.17l.95-1.14a3.38,3.38,0,0,0,2.18.89c.66,0,1.06-.26,1.06-.69v0c0-.41-.25-.62-1.47-.93-1.47-.38-2.42-.78-2.42-2.23v0a2.28,2.28,0,0,1,2.55-2.21,4.23,4.23,0,0,1,2.71.93l-.83,1.21a3.49,3.49,0,0,0-1.9-.72c-.61,0-.94.29-.94.64v0c0,.48.31.64,1.58,1,1.48.39,2.31.92,2.31,2.19v0C140.47,41.27,139.37,42.09,137.79,42.09Z"/><path class="cls-2" d="M148.19,42l-.67-1.64h-3.08L143.77,42h-1.64l3.13-7.35h1.48L149.87,42ZM146,36.56l-1,2.37H147Z"/><path class="cls-2" d="M51,159.51l-1.13-.91a3,3,0,0,1,2.72-1.51,2.24,2.24,0,0,1,2.52,2.27c0,1.22-.63,1.83-1.92,2.83l-1.19.92h3.18v1.39h-5.4v-1.27l2.43-2c.9-.75,1.26-1.14,1.26-1.75a.9.9,0,0,0-1-.95C51.91,158.53,51.53,158.84,51,159.51Z"/><path class="cls-2" d="M60.59,164.62c-2,0-3.23-1.63-3.23-3.76s1.3-3.79,3.25-3.79,3.24,1.64,3.24,3.77S62.54,164.62,60.59,164.62Zm0-6.1c-1,0-1.58,1-1.58,2.32s.63,2.33,1.6,2.33,1.59-1,1.59-2.31S61.56,158.52,60.59,158.52Z"/><path class="cls-2" d="M67.08,159.51,66,158.6a3,3,0,0,1,2.72-1.51,2.24,2.24,0,0,1,2.52,2.27c0,1.22-.63,1.83-1.92,2.83l-1.19.92h3.18v1.39h-5.4v-1.27l2.43-2c.91-.75,1.26-1.14,1.26-1.75a.9.9,0,0,0-1-.95C68,158.53,67.62,158.84,67.08,159.51Z"/><path class="cls-2" d="M76.68,164.62c-2,0-3.23-1.63-3.23-3.76s1.3-3.79,3.25-3.79,3.24,1.64,3.24,3.77S78.63,164.62,76.68,164.62Zm0-6.1c-1,0-1.58,1-1.58,2.32s.63,2.33,1.6,2.33,1.59-1,1.59-2.31S77.65,158.52,76.68,158.52Z"/><path class="cls-3" d="M58.78,72.3H55V79H50.08V56.56h9.18c5.36,0,8.61,3.18,8.61,7.77v.07C67.87,69.6,63.82,72.3,58.78,72.3Zm4.08-7.87c0-2.21-1.54-3.4-4-3.4H55V67.9h3.92c2.47,0,3.92-1.48,3.92-3.41Z"/><path class="cls-3" d="M86.93,79.42A11.51,11.51,0,0,1,75,67.87V67.8a12,12,0,0,1,23.89-.06v.06A11.62,11.62,0,0,1,86.93,79.42ZM93.74,67.8a6.83,6.83,0,0,0-6.81-7.06,6.72,6.72,0,0,0-6.74,7v.06A6.84,6.84,0,0,0,87,74.87a6.72,6.72,0,0,0,6.74-7Z"/><path class="cls-3" d="M115.63,79.36a14.27,14.27,0,0,1-9.53-3.6L109,72.27A10.34,10.34,0,0,0,115.73,75c2,0,3.24-.8,3.24-2.12v-.06c0-1.25-.77-1.89-4.53-2.86-4.52-1.15-7.44-2.4-7.44-6.87V63c0-4.08,3.27-6.78,7.86-6.78a13,13,0,0,1,8.35,2.86l-2.57,3.73a10.48,10.48,0,0,0-5.84-2.22c-1.9,0-2.89.87-2.89,2v.06c0,1.48,1,2,4.85,3,4.56,1.18,7.12,2.82,7.12,6.74v.06C123.88,76.86,120.48,79.36,115.63,79.36Z"/><path class="cls-3" d="M142.37,61.12V79h-4.94V61.12h-6.84V56.56h18.62v4.56Z"/><path class="cls-3" d="M63,101.65v9h-5v-8.86L49.42,88.14h5.77l5.37,9,5.45-9h5.62Z"/><path class="cls-3" d="M85,111A11.52,11.52,0,0,1,73.07,99.44v-.07A12,12,0,0,1,97,99.31v.06A11.63,11.63,0,0,1,85,111Zm6.81-11.63A6.83,6.83,0,0,0,85,92.31a6.72,6.72,0,0,0-6.74,7v.06a6.83,6.83,0,0,0,6.81,7.07,6.72,6.72,0,0,0,6.74-7Z"/><path class="cls-3" d="M112,111c-6,0-9.73-3.37-9.73-10V88.14h5v12.71c0,3.66,1.83,5.55,4.84,5.55s4.85-1.83,4.85-5.39V88.14h5v12.68C121.87,107.62,118,111,112,111Z"/><path class="cls-3" d="M141.83,110.61,137,103.42h-3.88v7.19h-4.95V88.14h10.28c5.3,0,8.48,2.79,8.48,7.41v.07a7,7,0,0,1-4.82,7l5.49,8Zm.1-14.8c0-2.12-1.48-3.21-3.89-3.21h-4.91v6.45h5c2.41,0,3.79-1.28,3.79-3.18Z"/><path class="cls-3" d="M61.71,143.08H57.34l-9.08-22.63h5.45l5.88,15.82,5.88-15.82h5.32Z"/><path class="cls-3" d="M86.94,143.31A11.52,11.52,0,0,1,75,131.75v-.07a12,12,0,0,1,23.89-.06v.06A11.63,11.63,0,0,1,86.94,143.31Zm6.81-11.63a6.83,6.83,0,0,0-6.81-7.06,6.72,6.72,0,0,0-6.74,7v.06A6.83,6.83,0,0,0,87,138.75a6.72,6.72,0,0,0,6.74-7Z"/><path class="cls-3" d="M115.73,125v17.92h-4.94V125H104v-4.55h18.62V125Z"/><path class="cls-3" d="M129.56,142.92V120.45h17v4.39h-12v4.56h10.59v4.4H134.48v4.72h12.2v4.4Z"/><polygon class="cls-2" points="54.05 40.35 57.02 42.41 55.97 38.95 58.85 36.77 55.24 36.7 54.05 33.28 52.87 36.7 49.26 36.77 52.13 38.95 51.09 42.41 54.05 40.35"/><polygon class="cls-2" points="65.84 40.35 68.81 42.41 67.77 38.95 70.64 36.77 67.03 36.7 65.84 33.28 64.66 36.7 61.05 36.77 63.92 38.95 62.88 42.41 65.84 40.35"/><polygon class="cls-2" points="77.64 40.35 80.6 42.41 79.56 38.95 82.44 36.77 78.82 36.7 77.64 33.28 76.45 36.7 72.84 36.77 75.72 38.95 74.67 42.41 77.64 40.35"/><polygon class="cls-2" points="120.41 162.53 123.23 164.5 122.24 161.2 124.98 159.12 121.54 159.05 120.41 155.8 119.28 159.05 115.83 159.12 118.58 161.2 117.58 164.5 120.41 162.53"/><polygon class="cls-2" points="131.64 162.53 134.47 164.5 133.47 161.2 136.22 159.12 132.77 159.05 131.64 155.8 130.51 159.05 127.07 159.12 129.81 161.2 128.81 164.5 131.64 162.53"/><polygon class="cls-2" points="142.88 162.53 145.7 164.5 144.71 161.2 147.45 159.12 144.01 159.05 142.88 155.8 141.75 159.05 138.3 159.12 141.05 161.2 140.05 164.5 142.88 162.53"/><path class="cls-2" d="M119.2,36.87H86.44a.8.8,0,0,1,0-1.6H119.2a.8.8,0,0,1,0,1.6Z"/><path class="cls-2" d="M119.2,41.69H86.44a.81.81,0,0,1,0-1.61H119.2a.81.81,0,0,1,0,1.61Z"/><path class="cls-2" d="M109.77,159.45H86a.8.8,0,0,1,0-1.6h23.76a.8.8,0,1,1,0,1.6Z"/><path class="cls-2" d="M109.77,164.27H86a.81.81,0,0,1,0-1.61h23.76a.81.81,0,1,1,0,1.61Z"/></svg>