<svg xmlns="http://www.w3.org/2000/svg" viewBox="0 0 137.99 153.08"><defs><style>.cls-1{fill:#ec1c24;}.cls-2{fill:#fff;}.cls-3{fill:#0d183f;}.cls-4{fill:#1b2e5a;}.cls-5{fill:#72286f;}.cls-6{fill:#45215d;}</style></defs><g id="Layer_2" data-name="Layer 2"><g id="Layer_1-2" data-name="Layer 1"><path class="cls-1" d="M137.23,152.43c-2.14,2.38-4.35-2.57-7.55-2.57s-3.19,3.09-6.39,3.09-3.19-3.09-6.39-3.09-3.2,3.09-6.39,3.09-3.2-3.09-6.4-3.09S100.92,153,97.72,153s-3.2-3.09-6.39-3.09S88.14,153,84.94,153s-3.19-3.09-6.39-3.09S75.36,153,72.16,153s-3.2-3.09-6.39-3.09S62.57,153,59.38,153s-3.2-3.09-6.4-3.09-3.2,3.09-6.4,3.09-3.19-3.09-6.39-3.09S37,153,33.79,153s-3.2-3.09-6.39-3.09S24.2,153,21,153s-3.2-3.09-6.4-3.09S11.39,153,8.19,153s-3.11-.2-5.26-2.58C.55,147.72.24,147.84.24,144.28s3.09-3.57,3.09-7.13S.24,133.59.24,130s3.09-3.56,3.09-7.12S.24,119.33.24,115.77s3.09-3.57,3.09-7.13S.24,105.08.24,101.51,3.33,98,3.33,94.38.24,90.82.24,87.25s3.09-3.56,3.09-7.12S.24,76.57.24,73s3.09-3.56,3.09-7.12S.24,62.31.24,58.75s3.09-3.57,3.09-7.13S.24,48.05.24,44.49s3.09-3.57,3.09-7.13S.24,33.79.24,30.23s3.09-3.57,3.09-7.13S.24,19.53.24,16s3.09-3.57,3.09-7.14S-1.75,3.31.64.65C2.77-1.73,5,3.22,8.18,3.22S11.37.13,14.57.13,17.77,3.22,21,3.22,24.16.13,27.35.13s3.2,3.09,6.4,3.09S36.94.13,40.14.13s3.2,3.09,6.39,3.09S49.73.13,52.92.13s3.2,3.09,6.39,3.09S62.51.13,65.7.13s3.2,3.09,6.4,3.09S75.29.13,78.49.13s3.19,3.09,6.39,3.09S88.08.13,91.28.13s3.2,3.09,6.39,3.09,3.2-3.09,6.4-3.09,3.2,3.09,6.4,3.09S113.66.13,116.86.13s3.2,3.09,6.4,3.09S126.47.13,129.67.13s3.12.2,5.26,2.58c2.38,2.65,2.69,2.53,2.69,6.09s-3.09,3.57-3.09,7.13,3.09,3.56,3.09,7.13-3.09,3.56-3.09,7.12,3.09,3.57,3.09,7.13-3.09,3.57-3.09,7.13,3.09,3.56,3.09,7.13-3.09,3.56-3.09,7.13,3.09,3.56,3.09,7.13-3.09,3.56-3.09,7.12,3.09,3.56,3.09,7.13-3.09,3.56-3.09,7.12,3.09,3.57,3.09,7.13-3.09,3.57-3.09,7.13,3.09,3.57,3.09,7.13-3.09,3.57-3.09,7.13,3.09,3.57,3.09,7.13-3.09,3.57-3.09,7.13,3.09,3.57,3.09,7.14-4,4.12-3,7.56C135.77,148.9,139.61,149.77,137.23,152.43Z"/><path class="cls-2" d="M97.2,20.92a2.79,2.79,0,0,1-3-3.11v-4h1.55v4c0,1.14.57,1.73,1.51,1.73s1.51-.57,1.51-1.68v-4h1.55v4A2.82,2.82,0,0,1,97.2,20.92Z"/><path class="cls-2" d="M105.35,20.91a4.45,4.45,0,0,1-3-1.12l.91-1.09a3.21,3.21,0,0,0,2.09.85c.64,0,1-.25,1-.66v0c0-.39-.24-.59-1.42-.89-1.41-.36-2.32-.76-2.32-2.15v0a2.19,2.19,0,0,1,2.45-2.11,4.06,4.06,0,0,1,2.61.89l-.8,1.16a3.31,3.31,0,0,0-1.83-.69c-.59,0-.9.27-.9.61v0c0,.46.3.61,1.52.92,1.42.37,2.22.88,2.22,2.11v0C107.93,20.13,106.87,20.91,105.35,20.91Z"/><path class="cls-2" d="M115.35,20.81l-.64-1.57h-3l-.64,1.57h-1.57l3-7.06H114l3,7.06Zm-2.12-5.21-.94,2.28h1.87Z"/><polygon class="cls-2" points="24.82 19.24 27.68 21.23 26.67 17.9 29.44 15.8 25.97 15.73 24.82 12.45 23.68 15.73 20.21 15.8 22.98 17.9 21.97 21.23 24.82 19.24"/><polygon class="cls-2" points="36.16 19.24 39.02 21.23 38.01 17.9 40.78 15.8 37.31 15.73 36.16 12.45 35.02 15.73 31.55 15.8 34.32 17.9 33.31 21.23 36.16 19.24"/><polygon class="cls-2" points="47.5 19.24 50.36 21.23 49.35 17.9 52.12 15.8 48.65 15.73 47.5 12.45 46.36 15.73 42.89 15.8 45.66 17.9 44.65 21.23 47.5 19.24"/><line class="cls-3" x1="55.97" y1="15.13" x2="87.48" y2="15.13"/><path class="cls-2" d="M87.48,15.9H56a.78.78,0,0,1,0-1.55H87.48a.78.78,0,0,1,0,1.55Z"/><line class="cls-3" x1="55.97" y1="19.76" x2="87.48" y2="19.76"/><path class="cls-2" d="M87.48,20.53H56A.78.78,0,0,1,56,19H87.48a.78.78,0,0,1,0,1.55Z"/><path class="cls-2" d="M23.66,133.85,22.57,133a2.93,2.93,0,0,1,2.62-1.46,2.16,2.16,0,0,1,2.42,2.18c0,1.17-.61,1.76-1.85,2.72l-1.14.89h3.06v1.33h-5.2v-1.22l2.34-1.92c.87-.72,1.21-1.1,1.21-1.68a.86.86,0,0,0-.94-.91C24.55,132.91,24.18,133.21,23.66,133.85Z"/><path class="cls-2" d="M32.89,138.76c-1.87,0-3.11-1.57-3.11-3.62s1.26-3.64,3.13-3.64S36,133.08,36,135.12,34.77,138.76,32.89,138.76Zm0-5.86c-.93,0-1.52.93-1.52,2.22s.61,2.25,1.54,2.25,1.53-1,1.53-2.23S33.82,132.9,32.89,132.9Z"/><path class="cls-2" d="M39.13,133.85,38.05,133a2.91,2.91,0,0,1,2.61-1.46,2.15,2.15,0,0,1,2.42,2.18c0,1.17-.6,1.76-1.84,2.72l-1.15.89h3.06v1.33H38v-1.22l2.33-1.92c.88-.72,1.22-1.1,1.22-1.68a.86.86,0,0,0-.95-.91C40,132.91,39.65,133.21,39.13,133.85Z"/><path class="cls-2" d="M48.37,138.76c-1.88,0-3.11-1.57-3.11-3.62s1.25-3.64,3.13-3.64,3.1,1.58,3.1,3.62S50.24,138.76,48.37,138.76Zm0-5.86c-.94,0-1.53.93-1.53,2.22s.61,2.25,1.55,2.25,1.52-1,1.52-2.23S49.3,132.9,48.37,132.9Z"/><polygon class="cls-2" points="90.42 136.75 93.14 138.64 92.18 135.47 94.82 133.47 91.51 133.4 90.42 130.28 89.34 133.4 86.03 133.47 88.66 135.47 87.7 138.64 90.42 136.75"/><polygon class="cls-2" points="101.23 136.75 103.95 138.64 102.99 135.47 105.63 133.47 102.31 133.4 101.23 130.28 100.14 133.4 96.83 133.47 99.47 135.47 98.51 138.64 101.23 136.75"/><polygon class="cls-2" points="112.03 136.75 114.75 138.64 113.79 135.47 116.43 133.47 113.12 133.4 112.03 130.28 110.95 133.4 107.64 133.47 110.27 135.47 109.31 138.64 112.03 136.75"/><line class="cls-3" x1="57.34" y1="133.02" x2="80.2" y2="133.02"/><path class="cls-2" d="M80.2,133.79H57.34a.77.77,0,0,1,0-1.54H80.2a.77.77,0,1,1,0,1.54Z"/><line class="cls-3" x1="57.34" y1="137.65" x2="80.2" y2="137.65"/><path class="cls-2" d="M80.2,138.42H57.34a.77.77,0,0,1,0-1.54H80.2a.77.77,0,1,1,0,1.54Z"/><path class="cls-4" d="M19.16,71.24v46.81A2.86,2.86,0,0,0,22,120.91h94.4a2.87,2.87,0,0,0,2.86-2.86V71.24"/><path class="cls-5" d="M19.28,70.84c-.28.44-.07.8.45.8h99c.53,0,.73-.36.45-.8L106.7,51.94a1.93,1.93,0,0,0-1.45-.81H33.18a1.93,1.93,0,0,0-1.46.81Z"/><g id="iYLszc.tif"><path class="cls-6" d="M86.77,77.9a3.19,3.19,0,0,1-1.09,1.76c-1,1-2,2-3.05,3a75.33,75.33,0,0,0-13.88,19,94.54,94.54,0,0,0-4.21,9.22,1.47,1.47,0,0,1-.9,1H63.4a1.37,1.37,0,0,1-.89-.74c-1.3-2.17-2.58-4.37-3.93-6.51a42.21,42.21,0,0,0-6.94-8.31l-.33-.32a1.64,1.64,0,0,1,.16-2.57,2.32,2.32,0,0,1,1.32-.44,8.38,8.38,0,0,1,3.05.57,47.05,47.05,0,0,1,6.38,2.92l.29.14c.83-1,1.63-1.9,2.45-2.84A152.69,152.69,0,0,1,76.35,81.92a36.53,36.53,0,0,1,5.43-4.34,7.15,7.15,0,0,1,2.84-1.16,2.43,2.43,0,0,1,1.4.24,1.53,1.53,0,0,1,.75,1Z"/></g><g id="iYLszc.tif-2" data-name="iYLszc.tif"><path class="cls-5" d="M86.77,78.85a3.25,3.25,0,0,1-1.09,1.77c-1,1-2,2-3.05,3a75.51,75.51,0,0,0-13.88,19,94.54,94.54,0,0,0-4.21,9.22,1.45,1.45,0,0,1-.9,1H63.4a1.34,1.34,0,0,1-.89-.74c-1.3-2.17-2.58-4.37-3.93-6.51a42.21,42.21,0,0,0-6.94-8.31L51.31,97a1.64,1.64,0,0,1,.16-2.57A2.26,2.26,0,0,1,52.79,94a8.38,8.38,0,0,1,3.05.57,48.31,48.31,0,0,1,6.38,2.92l.29.14c.83-.95,1.63-1.9,2.45-2.84A154.49,154.49,0,0,1,76.35,82.87a36.53,36.53,0,0,1,5.43-4.34,7.3,7.3,0,0,1,2.84-1.16,2.43,2.43,0,0,1,1.4.24,1.53,1.53,0,0,1,.75,1Z"/></g><path class="cls-4" d="M101.41,61.19a.67.67,0,0,1-.67,1H37a.56.56,0,0,1-.54-.89L37,60.18a1.78,1.78,0,0,1,1.45-.9H99.76a1.5,1.5,0,0,1,1.32.95Z"/><path class="cls-4" d="M100.76,59.28l1,2a.57.57,0,0,1-.56.89H35.57"/><rect class="cls-6" x="41.97" y="31.76" width="53.6" height="28.96"/><path class="cls-5" d="M88.32,41.36H56.5a.72.72,0,1,1,0-1.43H88.32a.72.72,0,0,1,0,1.43Z"/><g id="iYLszc.tif-3" data-name="iYLszc.tif"><path class="cls-5" d="M54.1,38.13a.51.51,0,0,1-.19.3c-.17.18-.35.34-.53.52A12.83,12.83,0,0,0,51,42.2a15.91,15.91,0,0,0-.73,1.57.26.26,0,0,1-.16.18h0a.29.29,0,0,1-.16-.13c-.22-.37-.44-.75-.68-1.11A6.84,6.84,0,0,0,48,41.29l-.05-.06a.26.26,0,0,1,0-.43.35.35,0,0,1,.22-.08,1.35,1.35,0,0,1,.53.1,7.38,7.38,0,0,1,1.11.5l.06,0,.42-.49c.63-.7,1.28-1.39,2-2a6.21,6.21,0,0,1,1-.74,1.11,1.11,0,0,1,.49-.2.41.41,0,0,1,.24,0,.27.27,0,0,1,.13.17Z"/></g><path class="cls-5" d="M88.32,49H56.5a.72.72,0,1,1,0-1.43H88.32a.72.72,0,0,1,0,1.43Z"/><g id="iYLszc.tif-4" data-name="iYLszc.tif"><path class="cls-5" d="M54.1,45.75a.57.57,0,0,1-.19.3l-.53.51A13.19,13.19,0,0,0,51,49.81a16.08,16.08,0,0,0-.73,1.58.23.23,0,0,1-.16.17h0a.24.24,0,0,1-.16-.12c-.22-.38-.44-.75-.68-1.12A7.4,7.4,0,0,0,48,48.9l-.05,0a.27.27,0,0,1,0-.44.34.34,0,0,1,.22-.07,1.55,1.55,0,0,1,.53.09,8.54,8.54,0,0,1,1.11.5l.06,0,.42-.49a27.24,27.24,0,0,1,2-2,6.21,6.21,0,0,1,1-.74,1.41,1.41,0,0,1,.49-.2.42.42,0,0,1,.24,0,.23.23,0,0,1,.13.17Z"/></g><path class="cls-5" d="M88.32,56.59H56.5a.72.72,0,1,1,0-1.43H88.32a.72.72,0,0,1,0,1.43Z"/><g id="iYLszc.tif-5" data-name="iYLszc.tif"><path class="cls-5" d="M54.1,53.36a.51.51,0,0,1-.19.3c-.17.18-.35.35-.53.52A13,13,0,0,0,51,57.43,15.07,15.07,0,0,0,50.24,59a.27.27,0,0,1-.16.17h0a.29.29,0,0,1-.16-.13c-.22-.37-.44-.74-.68-1.11A6.84,6.84,0,0,0,48,56.52l-.05-.05A.27.27,0,0,1,48,56a.35.35,0,0,1,.22-.08,1.35,1.35,0,0,1,.53.1,7.38,7.38,0,0,1,1.11.5l.06,0,.42-.48a27.24,27.24,0,0,1,2-2,6.21,6.21,0,0,1,1-.74,1.24,1.24,0,0,1,.49-.2.41.41,0,0,1,.24,0,.27.27,0,0,1,.13.17Z"/></g></g></g></svg>