<svg width="327" height="181" viewBox="0 0 327 181" fill="none" xmlns="http://www.w3.org/2000/svg">
<path d="M30.96 62.968L43.488 26.968H37.872V25.6H48.888V26.968H45.504L28.152 76.72H22.104L3.744 26.968H0.432V25.6H23.976V26.968H18.864L30.96 62.968ZM63.8994 61.816V55.696C63.8994 51.04 63.6354 47.656 63.1074 45.544C62.6274 43.384 61.4754 42.304 59.6514 42.304C58.5954 42.304 57.7314 42.616 57.0594 43.24C56.4354 43.816 55.9794 44.8 55.6914 46.192C55.2594 48.352 55.0434 51.64 55.0434 56.056V61.672C55.0434 66.904 55.1874 70.048 55.4754 71.104C55.8114 72.16 56.1474 73.024 56.4834 73.696C57.0114 74.848 58.0434 75.424 59.5794 75.424C61.4514 75.424 62.6754 74.344 63.2514 72.184C63.6834 70.648 63.8994 67.192 63.8994 61.816ZM59.4354 76.72C53.4354 76.72 48.8994 75.184 45.8274 72.112C42.7554 69.04 41.2194 64.648 41.2194 58.936C41.2194 53.176 42.8514 48.76 46.1154 45.688C49.4274 42.568 54.0594 41.008 60.0114 41.008C65.9634 41.008 70.4034 42.448 73.3314 45.328C76.2594 48.16 77.7234 52.504 77.7234 58.36C77.7234 70.6 71.6274 76.72 59.4354 76.72ZM79.7372 65.704V43.024H75.7772V41.728H79.7372V32.44L93.1292 29.128V41.728H102.489V43.024H93.1292V67.288C93.1292 69.544 93.3452 71.2 93.7772 72.256C94.2572 73.312 95.2172 73.84 96.6572 73.84C98.0972 73.84 99.3452 73.12 100.401 71.68C101.505 70.24 102.225 68.272 102.561 65.776L103.785 65.92C103.401 69.232 102.345 71.872 100.617 73.84C98.8892 75.76 96.0332 76.72 92.0492 76.72C88.0652 76.72 85.0172 75.928 82.9052 74.344C80.7932 72.76 79.7372 69.88 79.7372 65.704ZM119.809 76.72C113.617 76.72 108.961 75.136 105.841 71.968C102.769 68.752 101.233 64.312 101.233 58.648C101.233 52.936 102.961 48.568 106.417 45.544C109.921 42.52 114.361 41.008 119.737 41.008C130.633 41.008 135.865 46.48 135.433 57.424H115.129V60.232C115.129 64.936 115.729 68.488 116.929 70.888C118.129 73.288 120.217 74.488 123.193 74.488C128.761 74.488 132.409 71.512 134.137 65.56L135.433 65.776C134.521 69.232 132.865 71.92 130.465 73.84C128.113 75.76 124.561 76.72 119.809 76.72ZM115.201 55.984H122.617V52.456C122.617 48.568 122.377 45.928 121.897 44.536C121.465 43.096 120.553 42.376 119.161 42.376C117.817 42.376 116.809 43.144 116.137 44.68C115.513 46.168 115.201 48.76 115.201 52.456V55.984ZM23.616 115.512H19.8V139.632H24.48V141H1.08V139.632H5.76V91.968H1.08V90.6H22.824C29.064 90.6 33.48 90.936 36.072 91.608C38.712 92.232 40.56 93 41.616 93.912C43.92 95.784 45.072 98.76 45.072 102.84C45.072 106.92 44.064 109.848 42.048 111.624C40.032 113.352 36.96 114.384 32.832 114.72V114.936C36.72 115.464 39.432 116.616 40.968 118.392C42.504 120.168 43.272 123.144 43.272 127.32V131.136C43.272 133.632 43.392 135.312 43.632 136.176C43.92 137.04 44.496 137.472 45.36 137.472C46.224 137.472 46.896 137.088 47.376 136.32C47.904 135.504 48.384 133.824 48.816 131.28L50.04 131.424C49.512 135.504 48.576 138.24 47.232 139.632C45.936 141.024 43.32 141.72 39.384 141.72C35.448 141.72 32.64 140.808 30.96 138.984C29.328 137.112 28.512 133.632 28.512 128.544V123.288C28.512 120.6 28.152 118.632 27.432 117.384C26.76 116.136 25.488 115.512 23.616 115.512ZM19.8 91.968V114.144H22.104C24.84 114.144 26.856 113.304 28.152 111.624C29.496 109.944 30.168 107.208 30.168 103.416V101.328C30.168 97.536 29.52 95.04 28.224 93.84C26.976 92.592 24.96 91.968 22.176 91.968H19.8ZM66.8919 141.72C60.6999 141.72 56.0439 140.136 52.9239 136.968C49.8519 133.752 48.3159 129.312 48.3159 123.648C48.3159 117.936 50.0439 113.568 53.4999 110.544C57.0039 107.52 61.4439 106.008 66.8199 106.008C77.7159 106.008 82.9479 111.48 82.5159 122.424H62.2119V125.232C62.2119 129.936 62.8119 133.488 64.0119 135.888C65.2119 138.288 67.2999 139.488 70.2759 139.488C75.8439 139.488 79.4919 136.512 81.2199 130.56L82.5159 130.776C81.6039 134.232 79.9479 136.92 77.5479 138.84C75.1959 140.76 71.6439 141.72 66.8919 141.72ZM62.2839 120.984H69.6999V117.456C69.6999 113.568 69.4599 110.928 68.9799 109.536C68.5479 108.096 67.6359 107.376 66.2439 107.376C64.8999 107.376 63.8919 108.144 63.2199 109.68C62.5959 111.168 62.2839 113.76 62.2839 117.456V120.984ZM81.4809 106.728H98.8329V113.352C100.417 108.456 103.897 106.008 109.273 106.008C114.697 106.008 117.985 108.6 119.137 113.784C120.817 108.6 124.345 106.008 129.721 106.008C136.777 106.008 140.305 110.016 140.305 118.032V139.704H144.337V141H124.393V139.704H126.913V116.304C126.913 112.656 126.601 110.52 125.977 109.896C125.689 109.608 125.305 109.464 124.825 109.464C123.433 109.464 122.209 110.4 121.153 112.272C120.097 114.144 119.569 116.52 119.569 119.4V139.704H122.161V141H103.657V139.704H106.177V116.304C106.177 112.656 105.865 110.52 105.241 109.896C104.953 109.608 104.569 109.464 104.089 109.464C102.745 109.464 101.521 110.496 100.417 112.56C99.3609 114.576 98.8329 117 98.8329 119.832V139.704H101.425V141H81.4809V139.704H85.4409V108.024H81.4809V106.728ZM165.051 126.816V120.696C165.051 116.04 164.787 112.656 164.259 110.544C163.779 108.384 162.627 107.304 160.803 107.304C159.747 107.304 158.883 107.616 158.211 108.24C157.587 108.816 157.131 109.8 156.843 111.192C156.411 113.352 156.195 116.64 156.195 121.056V126.672C156.195 131.904 156.339 135.048 156.627 136.104C156.963 137.16 157.299 138.024 157.635 138.696C158.163 139.848 159.195 140.424 160.731 140.424C162.603 140.424 163.827 139.344 164.403 137.184C164.835 135.648 165.051 132.192 165.051 126.816ZM160.587 141.72C154.587 141.72 150.051 140.184 146.979 137.112C143.907 134.04 142.371 129.648 142.371 123.936C142.371 118.176 144.003 113.76 147.267 110.688C150.579 107.568 155.211 106.008 161.163 106.008C167.115 106.008 171.555 107.448 174.483 110.328C177.411 113.16 178.875 117.504 178.875 123.36C178.875 135.6 172.779 141.72 160.587 141.72ZM180.889 130.704V108.024H176.929V106.728H180.889V97.44L194.281 94.128V106.728H203.641V108.024H194.281V132.288C194.281 134.544 194.497 136.2 194.929 137.256C195.409 138.312 196.369 138.84 197.809 138.84C199.249 138.84 200.497 138.12 201.553 136.68C202.657 135.24 203.377 133.272 203.713 130.776L204.937 130.92C204.553 134.232 203.497 136.872 201.769 138.84C200.041 140.76 197.185 141.72 193.201 141.72C189.217 141.72 186.169 140.928 184.057 139.344C181.945 137.76 180.889 134.88 180.889 130.704ZM220.961 141.72C214.769 141.72 210.113 140.136 206.993 136.968C203.921 133.752 202.385 129.312 202.385 123.648C202.385 117.936 204.113 113.568 207.569 110.544C211.073 107.52 215.513 106.008 220.889 106.008C231.785 106.008 237.017 111.48 236.585 122.424H216.281V125.232C216.281 129.936 216.881 133.488 218.081 135.888C219.281 138.288 221.369 139.488 224.345 139.488C229.913 139.488 233.561 136.512 235.289 130.56L236.585 130.776C235.673 134.232 234.017 136.92 231.617 138.84C229.265 140.76 225.713 141.72 220.961 141.72ZM216.353 120.984H223.769V117.456C223.769 113.568 223.529 110.928 223.049 109.536C222.617 108.096 221.705 107.376 220.313 107.376C218.969 107.376 217.961 108.144 217.289 109.68C216.665 111.168 216.353 113.76 216.353 117.456V120.984Z" fill="#EF4F2B"/>
<g style="mix-blend-mode:darken">
<path d="M227.961 89.424H182.265C180.729 89.424 179.609 89.072 178.905 88.368C178.201 87.664 177.849 86.544 177.849 85.008V68.496C177.849 63.888 178.393 60.24 179.48 57.552C180.569 54.864 182.073 52.72 183.993 51.12L196.377 40.656C196.889 40.208 197.433 39.824 198.009 39.504C198.585 39.12 199.193 38.768 199.833 38.448H185.913C184.377 38.448 183.257 38.096 182.553 37.392C181.849 36.688 181.497 35.568 181.497 34.032V22.8C181.497 21.968 181.593 21.264 181.785 20.688C182.041 20.112 182.393 19.632 182.841 19.248L195.225 8.784C195.545 8.528 195.961 8.336 196.473 8.20799C197.049 8.016 197.657 7.92 198.297 7.92H226.617C232.377 7.92 236.793 9.392 239.865 12.336C242.937 15.216 244.473 19.376 244.473 24.816V33.84C244.473 36.784 243.993 39.312 243.033 41.424C242.073 43.536 240.697 45.328 238.905 46.8L226.521 57.168C226.137 57.424 225.721 57.712 225.273 58.032C224.889 58.352 224.473 58.64 224.025 58.896H240.345C241.881 58.896 243.001 59.248 243.705 59.952C244.409 60.656 244.761 61.776 244.761 63.312V74.544C244.761 75.376 244.633 76.08 244.377 76.656C244.185 77.232 243.865 77.712 243.417 78.096L230.937 88.464C230.681 88.72 230.265 88.944 229.689 89.136C229.177 89.328 228.601 89.424 227.961 89.424ZM240.345 78C241.561 78 242.425 77.744 242.937 77.232C243.513 76.656 243.801 75.76 243.801 74.544V63.312C243.801 62.096 243.513 61.232 242.937 60.72C242.425 60.144 241.561 59.856 240.345 59.856H212.985V57.84C212.985 56.816 213.145 56.144 213.465 55.824C213.849 55.504 214.521 55.216 215.481 54.96L228.537 50.832C233.145 49.424 236.793 47.44 239.481 44.88C242.169 42.32 243.513 38.64 243.513 33.84V24.816C243.513 19.632 242.041 15.696 239.097 13.008C236.217 10.256 232.057 8.88 226.617 8.88H198.297C197.081 8.88 196.185 9.168 195.609 9.744C195.097 10.256 194.841 11.12 194.841 12.336V23.568C194.841 24.784 195.097 25.68 195.609 26.256C196.185 26.768 197.081 27.024 198.297 27.024H219.129C220.089 27.024 220.761 27.216 221.145 27.6C221.529 27.92 221.721 28.56 221.721 29.52C221.721 30.544 221.529 31.312 221.145 31.824C220.825 32.336 220.153 32.72 219.129 32.976L206.265 37.008C204.089 37.648 202.073 38.416 200.217 39.312C198.361 40.208 196.761 41.424 195.417 42.96C194.073 44.496 193.017 46.48 192.249 48.912C191.545 51.28 191.193 54.32 191.193 58.032V74.544C191.193 75.76 191.449 76.656 191.961 77.232C192.537 77.744 193.433 78 194.649 78H240.345ZM206.937 46.512L229.305 39.12C230.137 38.8 230.809 38.288 231.321 37.584C231.833 36.816 232.089 35.824 232.089 34.608V25.872C232.089 22.928 231.257 20.976 229.593 20.016C227.929 18.992 225.657 18.48 222.777 18.48H203.481V17.52H222.777C226.041 17.52 228.569 18.128 230.361 19.344C232.153 20.496 233.049 22.672 233.049 25.872V34.608C233.049 36.08 232.729 37.232 232.089 38.064C231.513 38.896 230.713 39.536 229.689 39.984L207.321 47.376C205.529 48.016 204.281 48.816 203.577 49.776C202.873 50.672 202.521 52.208 202.521 54.384V68.4H235.161V69.36H201.656V54.384C201.656 52.016 202.041 50.288 202.809 49.2C203.577 48.048 204.953 47.152 206.937 46.512ZM305.265 84.912C303.089 86.768 300.017 88.208 296.049 89.232C292.145 90.32 287.089 90.864 280.881 90.864C274.737 90.864 269.681 90.192 265.713 88.848C261.745 87.568 258.641 85.84 256.401 83.664C254.161 81.488 252.625 78.992 251.793 76.176C250.961 73.36 250.545 70.448 250.545 67.44V37.584C250.545 34.576 250.961 31.824 251.793 29.328C252.625 26.832 254.129 24.688 256.305 22.896L268.785 12.432C270.961 10.576 274.001 9.136 277.905 8.112C281.873 7.02399 286.993 6.47999 293.265 6.47999C299.409 6.47999 304.465 6.99199 308.433 8.016C312.401 9.04 315.473 10.48 317.649 12.336C319.889 14.128 321.425 16.304 322.257 18.864C323.089 21.36 323.505 24.112 323.505 27.12V59.856C323.505 62.8 323.089 65.552 322.257 68.112C321.425 70.608 319.921 72.752 317.745 74.544L305.265 84.912ZM322.545 59.856V27.12C322.545 24.176 322.129 21.52 321.297 19.152C320.465 16.72 318.961 14.64 316.785 12.912C314.609 11.184 311.601 9.84 307.761 8.88C303.985 7.92 299.153 7.44 293.265 7.44C287.377 7.44 282.513 7.92 278.673 8.88C274.897 9.84 271.921 11.184 269.745 12.912C267.569 14.64 266.033 16.72 265.137 19.152C264.305 21.52 263.889 24.176 263.889 27.12V59.856C263.889 62.8 264.305 65.488 265.137 67.92C266.033 70.288 267.569 72.336 269.745 74.064C271.921 75.728 274.897 77.04 278.673 78C282.513 78.96 287.377 79.44 293.265 79.44C299.153 79.44 303.985 78.96 307.761 78C311.601 77.04 314.609 75.728 316.785 74.064C318.961 72.336 320.465 70.288 321.297 67.92C322.129 65.488 322.545 62.8 322.545 59.856ZM274.257 57.648V29.328C274.257 27.408 274.545 25.648 275.121 24.048C275.697 22.448 276.689 21.104 278.097 20.016C279.505 18.864 281.425 17.968 283.857 17.328C286.353 16.688 289.457 16.368 293.169 16.368C300.593 16.368 305.617 17.584 308.241 20.016C310.929 22.448 312.273 25.552 312.273 29.328V57.648C312.273 61.488 310.929 64.624 308.241 67.056C305.617 69.424 300.593 70.608 293.169 70.608C289.457 70.608 286.353 70.288 283.857 69.648C281.425 69.008 279.505 68.144 278.097 67.056C276.689 65.904 275.697 64.528 275.121 62.928C274.545 61.328 274.257 59.568 274.257 57.648ZM293.169 17.328C286.321 17.328 281.617 18.416 279.057 20.592C276.497 22.768 275.217 25.68 275.217 29.328V57.648C275.217 61.296 276.497 64.208 279.057 66.384C281.617 68.56 286.321 69.648 293.169 69.648C300.017 69.648 304.753 68.56 307.377 66.384C310.001 64.208 311.313 61.296 311.313 57.648V29.328C311.313 25.744 310.001 22.864 307.377 20.688C304.753 18.448 300.017 17.328 293.169 17.328ZM285.585 56.4V30.576C285.585 29.36 286.033 28.336 286.929 27.504C287.889 26.608 290.001 26.16 293.265 26.16C296.529 26.16 298.609 26.608 299.505 27.504C300.465 28.336 300.945 29.36 300.945 30.576V56.4C300.945 57.68 300.465 58.768 299.505 59.664C298.609 60.496 296.529 60.912 293.265 60.912C290.001 60.912 287.889 60.496 286.929 59.664C286.033 58.768 285.585 57.68 285.585 56.4ZM286.545 56.4C286.545 56.848 286.609 57.296 286.737 57.744C286.865 58.192 287.153 58.544 287.601 58.8V41.04C287.601 40.592 287.537 40.144 287.409 39.696C287.281 39.248 286.993 38.896 286.545 38.64V56.4ZM227.961 175.424H182.265C180.729 175.424 179.609 175.072 178.905 174.368C178.201 173.664 177.849 172.544 177.849 171.008V154.496C177.849 149.888 178.393 146.24 179.48 143.552C180.569 140.864 182.073 138.72 183.993 137.12L196.377 126.656C196.889 126.208 197.433 125.824 198.009 125.504C198.585 125.12 199.193 124.768 199.833 124.448H185.913C184.377 124.448 183.257 124.096 182.553 123.392C181.849 122.688 181.497 121.568 181.497 120.032V108.8C181.497 107.968 181.593 107.264 181.785 106.688C182.041 106.112 182.393 105.632 182.841 105.248L195.225 94.784C195.545 94.528 195.961 94.336 196.473 94.208C197.049 94.016 197.657 93.92 198.297 93.92H226.617C232.377 93.92 236.793 95.392 239.865 98.336C242.937 101.216 244.473 105.376 244.473 110.816V119.84C244.473 122.784 243.993 125.312 243.033 127.424C242.073 129.536 240.697 131.328 238.905 132.8L226.521 143.168C226.137 143.424 225.721 143.712 225.273 144.032C224.889 144.352 224.473 144.64 224.025 144.896H240.345C241.881 144.896 243.001 145.248 243.705 145.952C244.409 146.656 244.761 147.776 244.761 149.312V160.544C244.761 161.376 244.633 162.08 244.377 162.656C244.185 163.232 243.865 163.712 243.417 164.096L230.937 174.464C230.681 174.72 230.265 174.944 229.689 175.136C229.177 175.328 228.601 175.424 227.961 175.424ZM240.345 164C241.561 164 242.425 163.744 242.937 163.232C243.513 162.656 243.801 161.76 243.801 160.544V149.312C243.801 148.096 243.513 147.232 242.937 146.72C242.425 146.144 241.561 145.856 240.345 145.856H212.985V143.84C212.985 142.816 213.145 142.144 213.465 141.824C213.849 141.504 214.521 141.216 215.481 140.96L228.537 136.832C233.145 135.424 236.793 133.44 239.481 130.88C242.169 128.32 243.513 124.64 243.513 119.84V110.816C243.513 105.632 242.041 101.696 239.097 99.008C236.217 96.256 232.057 94.88 226.617 94.88H198.297C197.081 94.88 196.185 95.168 195.609 95.744C195.097 96.256 194.841 97.12 194.841 98.336V109.568C194.841 110.784 195.097 111.68 195.609 112.256C196.185 112.768 197.081 113.024 198.297 113.024H219.129C220.089 113.024 220.761 113.216 221.145 113.6C221.529 113.92 221.721 114.56 221.721 115.52C221.721 116.544 221.529 117.312 221.145 117.824C220.825 118.336 220.153 118.72 219.129 118.976L206.265 123.008C204.089 123.648 202.073 124.416 200.217 125.312C198.361 126.208 196.761 127.424 195.417 128.96C194.073 130.496 193.017 132.48 192.249 134.912C191.545 137.28 191.193 140.32 191.193 144.032V160.544C191.193 161.76 191.449 162.656 191.961 163.232C192.537 163.744 193.433 164 194.649 164H240.345ZM206.937 132.512L229.305 125.12C230.137 124.8 230.809 124.288 231.321 123.584C231.833 122.816 232.089 121.824 232.089 120.608V111.872C232.089 108.928 231.257 106.976 229.593 106.016C227.929 104.992 225.657 104.48 222.777 104.48H203.481V103.52H222.777C226.041 103.52 228.569 104.128 230.361 105.344C232.153 106.496 233.049 108.672 233.049 111.872V120.608C233.049 122.08 232.729 123.232 232.089 124.064C231.513 124.896 230.713 125.536 229.689 125.984L207.321 133.376C205.529 134.016 204.281 134.816 203.577 135.776C202.873 136.672 202.521 138.208 202.521 140.384V154.4H235.161V155.36H201.656V140.384C201.656 138.016 202.041 136.288 202.809 135.2C203.577 134.048 204.953 133.152 206.937 132.512ZM305.265 170.912C303.089 172.768 300.017 174.208 296.049 175.232C292.145 176.32 287.089 176.864 280.881 176.864C274.737 176.864 269.681 176.192 265.713 174.848C261.745 173.568 258.641 171.84 256.401 169.664C254.161 167.488 252.625 164.992 251.793 162.176C250.961 159.36 250.545 156.448 250.545 153.44V123.584C250.545 120.576 250.961 117.824 251.793 115.328C252.625 112.832 254.129 110.688 256.305 108.896L268.785 98.432C270.961 96.576 274.001 95.136 277.905 94.112C281.873 93.024 286.993 92.48 293.265 92.48C299.409 92.48 304.465 92.992 308.433 94.016C312.401 95.04 315.473 96.48 317.649 98.336C319.889 100.128 321.425 102.304 322.257 104.864C323.089 107.36 323.505 110.112 323.505 113.12V145.856C323.505 148.8 323.089 151.552 322.257 154.112C321.425 156.608 319.921 158.752 317.745 160.544L305.265 170.912ZM322.545 145.856V113.12C322.545 110.176 322.129 107.52 321.297 105.152C320.465 102.72 318.961 100.64 316.785 98.912C314.609 97.184 311.601 95.84 307.761 94.88C303.985 93.92 299.153 93.44 293.265 93.44C287.377 93.44 282.513 93.92 278.673 94.88C274.897 95.84 271.921 97.184 269.745 98.912C267.569 100.64 266.033 102.72 265.137 105.152C264.305 107.52 263.889 110.176 263.889 113.12V145.856C263.889 148.8 264.305 151.488 265.137 153.92C266.033 156.288 267.569 158.336 269.745 160.064C271.921 161.728 274.897 163.04 278.673 164C282.513 164.96 287.377 165.44 293.265 165.44C299.153 165.44 303.985 164.96 307.761 164C311.601 163.04 314.609 161.728 316.785 160.064C318.961 158.336 320.465 156.288 321.297 153.92C322.129 151.488 322.545 148.8 322.545 145.856ZM274.257 143.648V115.328C274.257 113.408 274.545 111.648 275.121 110.048C275.697 108.448 276.689 107.104 278.097 106.016C279.505 104.864 281.425 103.968 283.857 103.328C286.353 102.688 289.457 102.368 293.169 102.368C300.593 102.368 305.617 103.584 308.241 106.016C310.929 108.448 312.273 111.552 312.273 115.328V143.648C312.273 147.488 310.929 150.624 308.241 153.056C305.617 155.424 300.593 156.608 293.169 156.608C289.457 156.608 286.353 156.288 283.857 155.648C281.425 155.008 279.505 154.144 278.097 153.056C276.689 151.904 275.697 150.528 275.121 148.928C274.545 147.328 274.257 145.568 274.257 143.648ZM293.169 103.328C286.321 103.328 281.617 104.416 279.057 106.592C276.497 108.768 275.217 111.68 275.217 115.328V143.648C275.217 147.296 276.497 150.208 279.057 152.384C281.617 154.56 286.321 155.648 293.169 155.648C300.017 155.648 304.753 154.56 307.377 152.384C310.001 150.208 311.313 147.296 311.313 143.648V115.328C311.313 111.744 310.001 108.864 307.377 106.688C304.753 104.448 300.017 103.328 293.169 103.328ZM285.585 142.4V116.576C285.585 115.36 286.033 114.336 286.929 113.504C287.889 112.608 290.001 112.16 293.265 112.16C296.529 112.16 298.609 112.608 299.505 113.504C300.465 114.336 300.945 115.36 300.945 116.576V142.4C300.945 143.68 300.465 144.768 299.505 145.664C298.609 146.496 296.529 146.912 293.265 146.912C290.001 146.912 287.889 146.496 286.929 145.664C286.033 144.768 285.585 143.68 285.585 142.4ZM286.545 142.4C286.545 142.848 286.609 143.296 286.737 143.744C286.865 144.192 287.153 144.544 287.601 144.8V127.04C287.601 126.592 287.537 126.144 287.409 125.696C287.281 125.248 286.993 124.896 286.545 124.64V142.4Z" fill="#2CBDFB"/>
</g>
<path d="M4.848 178.408L7.416 170.776L1.224 166.624H8.808L11.52 158.44L14.28 166.624H21.816L15.624 170.776L18.24 178.408L11.52 173.536L4.848 178.408ZM26.6871 178.408L29.2551 170.776L23.0631 166.624H30.6471L33.3591 158.44L36.1191 166.624H43.6551L37.4631 170.776L40.0791 178.408L33.3591 173.536L26.6871 178.408ZM48.5261 178.408L51.0941 170.776L44.9021 166.624H52.4861L55.1981 158.44L57.9581 166.624H65.4941L59.3021 170.776L61.9181 178.408L55.1981 173.536L48.5261 178.408Z" fill="#2CBDFB"/>
</svg>
